<svg version="1.1" id="Layer_1" xmlns="http://www.w3.org/2000/svg" xmlns:xlink="http://www.w3.org/1999/xlink" x="0px" y="0px"
	 width="100%" viewBox="0 0 800 1008" enable-background="new 0 0 800 1008" xml:space="preserve">
<path fill="#000000" opacity="1.000000" stroke="none" 
	d="
M467.200562,216.096207 
	C465.699982,226.686066 460.642365,231.424820 450.505890,231.131699 
	C441.188599,230.862289 432.025269,228.911545 422.833618,227.403442 
	C420.519745,227.023804 419.803345,225.895096 420.145294,223.608688 
	C422.431702,208.321075 424.673920,193.026672 426.857147,177.723999 
	C427.325928,174.438263 428.865051,173.171082 432.227173,173.744110 
	C439.278320,174.945923 446.416321,175.686630 453.421539,177.098602 
	C464.688751,179.369629 470.087341,187.149078 467.162933,196.140472 
	C465.958923,199.842316 462.856689,201.904007 459.976715,204.612961 
	C463.924316,207.474960 466.822693,210.805222 467.200562,216.096207 
M453.794952,224.765259 
	C458.484985,224.075211 460.272705,220.650436 460.427124,216.621292 
	C460.609924,211.853912 457.509460,208.870911 453.170258,207.582733 
	C445.679718,205.359009 437.874512,205.039978 429.974945,203.726547 
	C429.055603,209.348495 428.195496,214.397751 427.419159,219.459839 
	C427.111908,221.463120 428.039490,222.491501 430.119385,222.805176 
	C437.685486,223.946228 445.204224,225.525803 453.794952,224.765259 
M460.583557,194.725906 
	C461.320007,187.470108 459.522919,184.731842 452.544281,182.804672 
	C450.316284,182.189423 448.015381,181.791428 445.723724,181.461472 
	C432.688263,179.584641 432.094666,180.092514 431.344421,193.382858 
	C431.335083,193.548477 431.346161,193.716568 431.322418,193.879837 
	C430.902832,196.765259 432.244629,198.201782 435.044739,198.611816 
	C439.141205,199.211639 443.202118,200.168488 447.316406,200.503265 
	C452.351959,200.913040 457.417816,200.813873 460.583557,194.725906 
z"/>
<path fill="#000000" opacity="1.000000" stroke="none" 
	d="
M689.210205,467.912903 
	C682.355591,480.145844 670.701843,485.653137 658.578369,482.674805 
	C646.109924,479.611694 638.117371,469.276184 637.747925,455.520325 
	C637.578064,449.196503 637.764099,442.863068 637.594666,436.539215 
	C637.509460,433.356018 638.778015,431.966309 641.937805,431.951813 
	C657.257263,431.881500 672.576538,431.761139 687.895691,431.635834 
	C689.951172,431.619049 691.705383,432.121277 691.745300,434.497223 
	C691.931824,445.583710 693.789001,456.801941 689.210205,467.912903 
M684.658081,438.800323 
	C671.853760,437.470276 659.071411,439.003082 646.278015,439.105469 
	C644.207703,439.122009 643.334106,440.347534 643.361145,442.340546 
	C643.444519,448.485748 642.893433,454.657135 644.423645,460.730286 
	C646.836487,470.306549 655.419312,476.859528 665.412415,476.659790 
	C675.518799,476.457794 684.023315,469.653351 685.431519,459.781219 
	C686.390259,453.059906 686.356140,446.185181 684.658081,438.800323 
z"/>
<path fill="#000000" opacity="1.000000" stroke="none" 
	d="
M173.158691,453.215210 
	C176.028214,463.210938 175.092377,473.066437 175.172272,482.848297 
	C175.200470,486.302704 172.500320,486.131683 170.172012,486.150146 
	C157.532578,486.250397 144.892715,486.291718 132.253174,486.380768 
	C120.698433,486.462158 120.661415,486.477478 120.686699,474.936249 
	C120.699440,469.121063 120.259590,463.215271 121.102570,457.509735 
	C122.978310,444.814484 132.009827,436.662903 144.952652,435.055969 
	C157.106201,433.547028 167.589676,440.178284 173.158691,453.215210 
M129.072372,479.734833 
	C140.897308,479.623657 152.722961,479.399689 164.546753,479.473175 
	C167.897980,479.494019 169.044403,478.247620 168.938950,475.102661 
	C168.782700,470.441895 168.970795,465.763611 168.670898,461.114807 
	C167.989471,450.552216 160.686279,442.996246 149.984955,441.498260 
	C140.732956,440.203186 131.584763,445.679962 128.170212,454.631897 
	C125.281403,462.205444 126.506332,470.084290 126.613594,477.870026 
	C126.625290,478.718414 127.375458,479.306549 129.072372,479.734833 
z"/>
<path fill="#000000" opacity="1.000000" stroke="none" 
	d="
M539.502197,691.893677 
	C526.411865,688.444641 518.728821,676.612976 521.779663,665.165894 
	C524.229736,655.972900 533.247559,650.064026 545.247742,650.025757 
	C543.163147,645.170410 539.971558,641.151184 537.358765,636.802307 
	C536.332947,635.094910 534.930664,633.454712 537.498657,631.733887 
	C540.061890,630.016296 541.469116,631.393738 542.768005,633.375061 
	C551.255981,646.321838 559.752991,659.262817 568.209534,672.230042 
	C569.424316,674.092834 571.423462,675.973511 568.510681,678.178833 
	C565.644043,680.348999 564.444092,677.785767 562.684814,675.612305 
	C558.506531,686.439941 551.473206,692.521667 539.502197,691.893677 
M535.186157,657.575012 
	C527.707336,662.678711 525.765076,668.802063 529.249878,676.290283 
	C532.586182,683.459473 539.120300,687.011353 545.649231,685.204834 
	C554.466248,682.765198 558.906738,675.118713 556.269165,666.920227 
	C553.578613,658.557190 544.035278,652.391846 535.186157,657.575012 
z"/>
<path fill="#000000" opacity="1.000000" stroke="none" 
	d="
M643.547607,358.204498 
	C658.091003,356.284485 670.979797,371.948914 663.553833,388.100952 
	C669.351624,386.235229 674.619385,384.489044 679.922424,382.857239 
	C682.232727,382.146362 684.834106,380.813538 685.908142,384.633575 
	C686.919128,388.229309 683.999573,388.403290 681.957031,389.072968 
	C667.411255,393.841888 652.857544,398.590393 638.242432,403.139954 
	C636.119080,403.800964 633.330200,406.527313 631.447266,402.480713 
	C629.399841,398.080383 634.230530,399.062439 635.705139,396.969360 
	C627.588135,392.662109 623.505920,385.739990 624.357666,376.668671 
	C625.314453,366.478760 631.425964,360.891602 643.547607,358.204498 
M630.477417,381.848114 
	C630.899841,383.105011 631.201355,384.419128 631.764648,385.609314 
	C634.966858,392.374817 642.616638,395.329315 649.886108,392.668762 
	C658.012878,389.694458 661.843018,382.803528 659.648560,375.105072 
	C657.602966,367.928894 651.107971,363.524048 644.237000,364.653168 
	C635.114929,366.152222 630.212036,371.952606 630.477417,381.848114 
z"/>
<path fill="#000000" opacity="1.000000" stroke="none" 
	d="
M258.403351,267.550812 
	C253.526917,260.161407 248.770004,253.124725 244.237030,245.946640 
	C243.169373,244.256012 240.385117,242.478088 243.182281,239.982742 
	C246.017761,237.453201 247.571365,240.111053 249.920364,242.205124 
	C251.909027,234.411194 256.737762,229.613190 263.862030,226.956619 
	C268.548950,225.208923 273.018707,225.918015 277.487762,227.544449 
	C285.458801,230.445343 292.045715,241.101791 291.077515,249.467224 
	C289.803223,260.477264 282.225586,266.332550 266.421082,267.786194 
	C269.367584,272.411682 272.063782,276.661041 274.778870,280.898315 
	C275.907318,282.659424 276.946960,284.329956 274.675018,286.080627 
	C272.192261,287.993652 270.828705,286.681366 269.495087,284.601288 
	C265.900757,278.995178 262.239410,273.432068 258.403351,267.550812 
M281.764465,256.162079 
	C285.749634,249.126373 285.286133,242.879776 280.372406,237.400818 
	C275.938416,232.456772 269.849823,230.873734 264.156586,233.184555 
	C258.502777,235.479416 255.261490,240.241547 255.233948,246.293747 
	C255.205978,252.441757 259.108826,258.689301 264.682953,260.875336 
	C271.119537,263.399628 276.708496,261.879974 281.764465,256.162079 
z"/>
<path fill="#000000" opacity="1.000000" stroke="none" 
	d="
M156.871094,557.377625 
	C147.100998,550.146484 144.709412,541.740112 149.164474,529.963501 
	C143.184341,531.857178 137.523102,533.567078 131.924545,535.462097 
	C129.574997,536.257446 127.691841,536.529114 126.833939,533.594299 
	C126.029594,530.842712 127.856964,530.205627 129.913818,529.532043 
	C144.919510,524.617859 159.894318,519.609009 174.913788,514.737732 
	C177.180054,514.002686 179.978485,511.810425 181.496674,515.981628 
	C183.003479,520.121582 178.760544,519.188354 177.249908,521.226257 
	C183.285110,524.391602 187.303406,529.406799 188.236008,536.403015 
	C188.885544,541.275513 188.063522,545.859680 185.468643,550.287537 
	C181.189087,557.590149 167.051941,563.510742 156.871094,557.377625 
M152.902237,535.550293 
	C151.655258,542.337463 154.135284,548.500793 159.315292,551.487976 
	C165.358124,554.972717 171.756790,554.184204 177.766602,549.214294 
	C182.080841,545.646545 183.664581,539.028259 181.320679,533.345093 
	C179.009583,527.741577 174.561462,524.817261 168.614166,524.387695 
	C162.162231,523.921753 156.364166,527.965637 152.902237,535.550293 
z"/>
<path fill="#000000" opacity="1.000000" stroke="none" 
	d="
M565.095398,272.331970 
	C565.166443,270.548767 565.138672,269.207581 565.311462,267.892731 
	C565.667603,265.182068 564.547729,264.434265 561.893982,264.574280 
	C556.216309,264.873840 551.054993,265.810211 548.040833,271.475311 
	C547.060364,273.318115 545.470764,273.979462 543.524048,272.335541 
	C541.565979,270.682159 541.635132,269.190277 543.232971,267.263489 
	C553.851501,254.459000 564.415710,241.609375 574.954834,228.739426 
	C576.408020,226.964859 577.729004,226.006699 579.925293,227.708939 
	C582.502869,229.706726 581.232605,231.293015 579.732544,233.103592 
	C573.060852,241.156250 566.439331,249.250504 559.298401,257.939667 
	C571.216553,260.302612 583.506042,253.779922 595.337463,261.126892 
	C590.894592,263.860046 587.172058,262.973663 583.652893,263.333801 
	C569.494934,264.782654 571.876770,262.415192 571.384094,275.745300 
	C571.171753,281.490295 571.348389,287.249695 571.348389,293.434570 
	C566.641602,292.412476 564.889893,290.088806 564.936646,286.262512 
	C564.991577,281.770355 565.037537,277.278076 565.095398,272.331970 
z"/>
<path fill="#000000" opacity="1.000000" stroke="none" 
	d="
M141.811768,421.005981 
	C137.029327,413.551910 137.059174,406.159058 141.221237,399.026642 
	C145.287918,392.057709 151.880844,389.439941 159.823410,389.720825 
	C163.749573,389.859650 165.146835,391.466705 164.275497,395.396698 
	C162.659027,402.687256 161.272430,410.028748 159.787140,417.348419 
	C159.395248,419.279663 158.761444,421.216614 159.905807,423.086365 
	C169.635040,423.683014 176.758606,413.429108 173.898178,403.395142 
	C173.264923,401.173828 169.643646,397.839508 174.388947,396.484222 
	C178.518280,395.304901 178.802612,399.561279 179.577103,402.152100 
	C182.409561,411.627380 177.738861,422.906067 169.312790,427.516418 
	C160.348251,432.421417 149.438904,429.942047 141.811768,421.005981 
M155.110519,396.099854 
	C147.842239,397.846008 144.035461,402.664764 144.181870,409.933716 
	C144.305542,416.073975 147.443817,420.135223 152.941589,421.269623 
	C154.053986,419.161987 158.434265,400.006134 158.456680,397.742554 
	C158.477615,395.629913 157.222443,395.756104 155.110519,396.099854 
z"/>
<path fill="#000000" opacity="1.000000" stroke="none" 
	d="
M606.921753,586.878784 
	C606.328491,588.889526 606.346863,590.540710 606.689819,592.195190 
	C607.028381,593.828186 606.325500,594.751709 604.745361,595.050842 
	C603.294800,595.325439 602.151245,594.996643 601.491455,593.489197 
	C600.728210,591.745667 600.653259,589.931702 600.773071,588.097839 
	C601.434692,577.971680 609.266235,569.274048 619.379700,567.398315 
	C627.821350,565.832642 638.016235,571.719910 641.999451,580.460693 
	C645.368164,587.852661 643.111267,597.298706 636.565063,603.206665 
	C630.314392,608.847839 620.907593,609.726135 613.772400,605.565247 
	C611.219482,604.076477 611.217712,602.601379 612.620728,600.316406 
	C616.714539,593.649048 620.690552,586.908813 624.654785,580.163086 
	C625.559509,578.623413 626.875854,577.239075 626.943481,575.305481 
	C618.295898,570.914307 610.301208,575.432190 606.921753,586.878784 
M636.751892,593.058472 
	C638.708862,586.293457 637.511963,582.175476 631.933472,577.796814 
	C627.472168,585.302734 623.054626,592.735107 618.589111,600.248169 
	C626.458679,603.732544 631.982422,601.533264 636.751892,593.058472 
z"/>
<path fill="#000000" opacity="1.000000" stroke="none" 
	d="
M212.281357,642.921448 
	C195.019470,639.230408 188.278259,622.395386 198.679413,609.942261 
	C202.395432,605.493164 203.323715,605.509644 207.021500,609.880066 
	C212.808762,616.720032 218.636948,623.525391 224.440262,630.336548 
	C233.672791,622.600281 229.128891,612.416931 213.290985,604.221985 
	C213.085526,600.168640 215.050125,599.572998 218.605011,600.529968 
	C228.304657,603.140869 236.238129,613.962341 235.177490,623.435730 
	C233.977661,634.152466 224.592896,642.302551 212.281357,642.921448 
M200.312943,627.092773 
	C204.854263,636.833801 213.767929,639.862793 220.477066,633.491394 
	C214.950607,627.085693 209.412506,620.666443 203.611542,613.942566 
	C200.111908,618.070496 198.504822,621.778137 200.312943,627.092773 
z"/>
<path fill="#000000" opacity="1.000000" stroke="none" 
	d="
M301.783478,244.501678 
	C293.124176,239.194061 288.524536,230.120972 289.993561,221.748764 
	C291.499268,213.167404 297.726929,207.204651 307.196381,205.277695 
	C315.337372,203.621078 325.115875,209.311905 328.109528,217.181244 
	C329.211212,220.077271 327.837952,221.071716 325.584839,221.977081 
	C318.493439,224.826614 311.417999,227.716171 304.348175,230.618958 
	C302.697388,231.296768 301.093140,232.088043 299.502991,232.810974 
	C302.762604,241.146454 313.051575,243.046143 320.985626,237.175705 
	C322.745453,235.873642 324.283966,234.324570 325.237366,232.353363 
	C326.298798,230.158768 327.787720,229.985733 329.691498,231.069794 
	C331.722198,232.226105 331.043579,233.736710 330.278839,235.337753 
	C326.180878,243.917068 311.522858,249.644470 301.783478,244.501678 
M304.742432,211.904297 
	C297.172760,215.837326 294.814880,220.654221 297.494598,227.946777 
	C305.376678,224.739151 313.238434,221.539795 321.162048,218.315247 
	C317.562469,211.599060 313.927368,210.139038 304.742432,211.904297 
z"/>
<path fill="#000000" opacity="1.000000" stroke="none" 
	d="
M639.832214,492.725739 
	C653.193848,483.767700 670.070435,489.643890 673.593994,504.139923 
	C676.900146,517.741516 664.826965,530.605164 651.052673,528.284546 
	C647.398499,527.668823 647.529846,525.417175 648.061218,522.771301 
	C649.888489,513.674377 651.731934,504.580811 653.561035,495.526367 
	C648.686646,494.124664 643.863525,496.026093 640.930115,500.393188 
	C637.524292,505.463623 637.292725,510.953522 639.163940,516.626587 
	C639.782776,518.502747 641.005249,520.536682 638.254089,521.684021 
	C635.198792,522.958130 634.556763,520.291016 633.693848,518.465088 
	C629.838562,510.307526 632.176331,500.349884 639.832214,492.725739 
M667.761658,512.294373 
	C669.455200,504.127289 665.783508,497.593079 658.551086,496.418243 
	C656.892883,504.915375 655.233643,513.417603 653.542664,522.082886 
	C661.770935,521.827148 664.386963,520.046204 667.761658,512.294373 
z"/>
<path fill="#000000" opacity="1.000000" stroke="none" 
	d="
M609.840942,311.291138 
	C604.003540,306.753906 599.975708,300.824951 595.239258,295.536987 
	C592.923950,292.951935 590.696350,290.288300 588.454224,287.689484 
	C583.629700,291.115753 582.509399,298.176666 585.734192,303.765686 
	C588.259460,308.142365 591.865967,311.129486 596.966309,312.119904 
	C598.953857,312.505829 599.655457,313.828949 599.270203,315.810974 
	C598.823120,318.110992 597.295776,318.027740 595.483521,317.757660 
	C586.828674,316.468018 578.173340,306.562378 577.721924,297.350739 
	C577.237732,287.473267 584.260010,278.235260 594.194702,275.680237 
	C603.147522,273.377716 612.788330,278.029144 617.020874,286.693207 
	C621.317688,295.488861 618.766785,304.626892 609.840942,311.291138 
M611.713074,289.073364 
	C606.441528,280.614807 598.099365,278.433167 592.722778,284.107056 
	C596.359619,290.122375 606.256287,301.249176 609.784363,303.194031 
	C613.410706,299.204712 613.571899,294.646057 611.713074,289.073364 
z"/>
<path fill="#000000" opacity="1.000000" stroke="none" 
	d="
M487.343140,684.245361 
	C486.100922,686.590576 484.953918,688.546204 482.242035,686.701660 
	C479.733612,684.995483 481.358643,683.129517 482.311310,681.510925 
	C487.083618,673.402649 499.010925,669.352112 508.180664,672.632751 
	C517.284119,675.889771 523.473877,686.164490 522.026489,695.616333 
	C520.504883,705.552795 511.935760,712.695435 501.205780,712.971130 
	C494.464478,713.144348 485.684601,706.550781 483.625732,700.093018 
	C482.678070,697.120605 484.665802,696.664429 486.477905,695.908936 
	C493.698792,692.898254 500.938263,689.932190 508.163910,686.932922 
	C509.665955,686.309448 511.424194,686.075684 512.290344,684.422852 
	C508.151703,675.085754 495.536530,674.858582 487.343140,684.245361 
M509.335327,691.949707 
	C503.250641,694.728088 496.714203,696.532654 490.847809,699.925232 
	C494.423706,705.826477 498.814545,707.836304 504.811646,706.655701 
	C510.320801,705.571167 514.786804,701.299561 515.614563,696.322937 
	C516.540222,690.757996 515.353516,689.760925 509.335327,691.949707 
z"/>
<path fill="#000000" opacity="1.000000" stroke="none" 
	d="
M190.297272,333.260193 
	C188.497009,336.453979 186.873489,339.327911 185.156204,342.367798 
	C189.476364,345.684082 193.550812,344.888031 197.392044,342.531464 
	C203.075195,339.044891 205.907806,333.848083 205.675827,327.088928 
	C205.607849,325.108002 205.172256,322.825714 208.290085,322.816193 
	C211.185013,322.807373 211.179764,324.975616 211.327209,327.006683 
	C212.087234,337.476990 203.671341,348.901276 194.180054,350.277618 
	C182.456589,351.977661 171.598160,344.593079 169.088745,333.213501 
	C167.540436,326.192291 171.204361,317.499237 177.524902,313.197632 
	C183.963501,308.815704 192.477249,308.688965 198.777924,312.611450 
	C201.168213,314.099548 200.873474,315.495789 199.642181,317.505463 
	C196.516144,322.607544 193.521347,327.790039 190.297272,333.260193 
M188.299469,315.947845 
	C180.778091,316.620819 176.477661,320.182434 174.878983,327.062683 
	C173.719376,332.053284 175.657150,336.557007 180.526733,339.443939 
	C185.087982,332.272034 189.787796,325.187225 193.263702,317.630615 
	C191.799194,315.989288 190.377167,316.222412 188.299469,315.947845 
z"/>
<path fill="#000000" opacity="1.000000" stroke="none" 
	d="
M489.868439,217.906891 
	C493.688110,219.207947 497.121582,220.395416 500.447662,221.545761 
	C503.957428,216.562866 503.235535,212.016647 498.709167,208.953232 
	C494.461548,206.078522 489.717804,205.728867 484.818451,206.305099 
	C482.724335,206.551407 480.776001,206.786316 480.353302,203.895050 
	C479.896393,200.769928 482.233307,200.882797 484.133331,200.546127 
	C491.011993,199.327301 497.424255,200.848862 503.138550,204.618362 
	C508.370209,208.069504 510.606262,213.352158 508.829437,219.381912 
	C506.438110,227.497101 503.321106,235.398071 500.532959,243.397018 
	C499.978577,244.987534 499.216309,245.843216 497.244476,245.520828 
	C494.483612,245.069412 493.769073,243.412308 494.250031,240.617981 
	C488.698730,241.643585 483.683228,241.723480 478.829071,239.266296 
	C471.803864,235.710129 468.762421,229.893600 470.948334,223.547562 
	C473.023926,217.521820 478.843628,215.057877 486.617981,216.934372 
	C487.585480,217.167877 488.528107,217.504471 489.868439,217.906891 
M484.772919,235.767883 
	C492.645447,237.592438 497.366730,234.712830 499.045593,226.864410 
	C494.414368,224.716125 489.543243,223.155884 484.573090,221.816345 
	C481.269287,220.925949 479.006927,222.186127 477.470703,224.918716 
	C475.864319,227.776077 476.487152,230.508087 478.912933,232.559784 
	C480.404999,233.821747 482.310669,234.594635 484.772919,235.767883 
z"/>
<path fill="#000000" opacity="1.000000" stroke="none" 
	d="
M392.205139,712.659424 
	C400.922485,712.748169 400.965790,712.751282 401.570587,704.304993 
	C401.808380,700.984192 401.781311,697.645203 401.917450,694.316223 
	C402.028778,691.593689 403.505676,690.472168 406.183502,690.759888 
	C408.792450,691.040100 408.727509,692.805847 408.621338,694.776184 
	C407.806427,709.899902 406.961761,725.022705 406.305725,740.153564 
	C406.139252,743.992981 404.716858,745.481506 400.793457,745.160522 
	C391.340302,744.387085 381.865479,743.877014 372.398376,743.276794 
	C370.228851,743.139221 368.360504,742.772583 368.577698,739.902466 
	C368.806488,736.879456 370.805176,737.249573 372.913544,737.391541 
	C380.054901,737.872314 387.209534,738.162720 394.347321,738.686829 
	C397.975128,738.953125 400.018890,738.153870 399.792877,733.867798 
	C399.619415,730.577942 400.220520,727.236755 400.592926,723.931458 
	C400.958160,720.689575 399.959412,718.915833 396.357239,718.811768 
	C390.200256,718.633972 384.042786,718.280823 377.904053,717.776001 
	C375.975800,717.617493 373.173920,717.998779 373.458282,714.514893 
	C373.726196,711.232178 376.201324,711.656738 378.294342,711.754333 
	C382.782257,711.963501 387.262268,712.342346 392.205139,712.659424 
z"/>
<path fill="#000000" opacity="1.000000" stroke="none" 
	d="
M584.325867,660.337097 
	C573.080566,662.028625 563.346680,652.305542 561.312500,643.909729 
	C559.297180,635.591553 563.610352,625.783936 571.838440,621.072021 
	C582.230347,615.120911 594.770752,619.059570 600.693481,630.134888 
	C606.167603,640.371338 601.739380,653.120544 590.837830,658.244080 
	C588.903198,659.153198 586.762573,659.624146 584.325867,660.337097 
M591.377563,650.939697 
	C596.481689,646.541199 598.081055,641.144287 595.750061,634.783997 
	C593.755554,629.341736 586.970398,624.325073 581.524841,624.529541 
	C575.597778,624.751953 571.027771,627.529175 568.373108,632.988831 
	C565.687805,638.511414 567.247070,645.039124 572.276978,649.766602 
	C578.080322,655.221008 583.311768,655.685608 591.377563,650.939697 
z"/>
<path fill="#000000" opacity="1.000000" stroke="none" 
	d="
M248.337158,289.108154 
	C238.600388,301.849274 225.381393,303.325287 215.315918,293.097076 
	C209.261932,286.945221 207.503189,278.508575 210.738602,271.140076 
	C214.501266,262.570740 222.172516,257.467163 231.020172,257.647034 
	C239.166626,257.812653 247.185364,263.770386 250.201981,272.033051 
	C252.326950,277.853485 251.677750,283.459808 248.337158,289.108154 
M244.122681,284.284393 
	C245.077942,281.896759 245.110336,279.412842 244.756714,276.928314 
	C243.616684,268.918732 234.086548,261.973846 227.055435,263.984833 
	C219.804443,266.058716 215.236649,271.622284 215.347290,278.245331 
	C215.456497,284.782501 221.023987,291.478363 227.880417,293.318604 
	C233.674072,294.873596 240.024261,291.559418 244.122681,284.284393 
z"/>
<path fill="#000000" opacity="1.000000" stroke="none" 
	d="
M312.486511,673.763855 
	C327.284149,673.317261 335.839417,679.570129 337.806915,691.904358 
	C338.978729,699.250549 334.412842,708.492188 327.537537,712.689880 
	C320.691284,716.869995 310.829010,716.025940 303.626404,710.643555 
	C297.320160,705.930969 294.388977,697.416626 296.557770,689.770508 
	C298.848389,681.694885 303.610138,675.949768 312.486511,673.763855 
M318.879791,709.428528 
	C320.423889,708.819092 322.043488,708.351257 323.498657,707.575134 
	C329.010651,704.635193 332.587830,696.560791 331.152893,690.528198 
	C329.651184,684.214844 324.084351,679.627625 317.559082,679.326660 
	C311.027283,679.025269 305.516724,683.291687 303.337372,690.337402 
	C300.027435,701.038147 306.073090,708.904358 318.879791,709.428528 
z"/>
<path fill="#000000" opacity="1.000000" stroke="none" 
	d="
M269.470825,646.557129 
	C272.692352,647.757935 273.081879,649.384155 271.376404,652.018188 
	C267.851593,657.462158 264.462494,663.000000 261.190826,668.600403 
	C257.268982,675.313721 258.167877,680.519043 263.667969,684.312683 
	C270.046295,688.711914 277.534363,688.039368 281.856262,682.130859 
	C285.677795,676.906250 288.912872,671.250671 292.364166,665.758484 
	C293.579895,663.823853 294.622620,662.024963 297.407227,663.733459 
	C300.142151,665.411499 299.215118,667.052979 297.929169,669.092834 
	C292.340576,677.957581 286.891510,686.910583 281.279724,695.760498 
	C280.238342,697.402710 279.656525,700.243530 276.605713,699.067078 
	C273.477631,697.860840 273.627625,695.500122 275.798676,692.267761 
	C268.437164,693.059998 262.613983,691.850342 257.747711,687.418823 
	C252.414673,682.562195 250.577957,676.490601 253.385742,669.858887 
	C256.836548,661.708496 262.214111,654.631042 266.948822,647.205078 
	C267.429413,646.451294 268.241730,646.213928 269.470825,646.557129 
z"/>
<path fill="#000000" opacity="1.000000" stroke="none" 
	d="
M178.238663,602.779541 
	C180.762909,600.265442 177.829910,600.517334 177.036453,600.094971 
	C170.349823,596.536011 166.552368,591.037048 165.692978,583.548096 
	C165.113480,578.498291 167.040924,574.426453 170.940521,571.260803 
	C177.714279,565.761963 185.778137,562.400696 193.164673,557.915833 
	C194.962738,556.824097 196.224960,557.584412 197.239807,559.317993 
	C198.466293,561.413025 197.780289,562.684509 195.854462,563.763306 
	C190.481476,566.773193 185.115265,569.796753 179.791687,572.892822 
	C172.114120,577.357971 170.051376,582.781433 173.473297,589.254639 
	C177.202805,596.309692 184.008469,598.467590 191.664246,594.653076 
	C197.020386,591.984314 202.157684,588.873779 207.370483,585.921326 
	C209.392380,584.776123 211.225983,583.843933 212.817810,586.607971 
	C214.431427,589.409851 212.648743,590.438477 210.614700,591.575195 
	C201.025299,596.934265 191.466385,602.347961 181.883270,607.718384 
	C180.450836,608.521118 178.968155,609.606812 177.569977,607.547485 
	C176.415787,605.847473 175.779922,604.276306 178.238663,602.779541 
z"/>
<path fill="#000000" opacity="1.000000" stroke="none" 
	d="
M640.122681,348.203552 
	C633.479431,352.059479 627.137878,355.708771 620.821655,359.401154 
	C618.818176,360.572388 617.075745,361.585236 615.520691,358.648621 
	C614.119507,356.002747 615.722046,355.034912 617.548584,354.007080 
	C622.476929,351.233856 627.420105,348.486816 632.342712,345.703400 
	C640.695862,340.980194 642.891052,335.459900 639.141113,328.678711 
	C635.114563,321.397614 628.010681,319.550842 619.965637,323.840576 
	C614.976318,326.500977 610.070251,329.320831 605.172058,332.147400 
	C602.981567,333.411438 601.204895,333.719727 599.845459,331.029968 
	C598.521057,328.409637 600.254089,327.472626 602.088196,326.449188 
	C611.094299,321.423737 620.049744,316.305481 629.115662,311.390778 
	C630.983826,310.377991 632.962097,307.389587 635.454773,310.760162 
	C637.846252,313.994049 634.562988,314.984680 632.836243,317.032104 
	C641.125183,319.817291 646.013977,325.511658 647.209961,333.928680 
	C648.063904,339.938354 645.201172,344.522491 640.122681,348.203552 
z"/>
<path fill="#000000" opacity="1.000000" stroke="none" 
	d="
M513.141235,233.567902 
	C518.016479,220.071075 534.074768,214.664566 546.974243,225.579208 
	C550.635864,228.677444 552.897156,232.626770 552.794495,237.829071 
	C549.913696,238.675644 547.835449,239.257782 546.521362,235.410385 
	C544.080688,228.264847 536.476562,224.648193 529.164368,226.555481 
	C522.171143,228.379562 517.288635,236.303726 518.342285,244.119202 
	C519.238281,250.765411 525.704834,255.907120 532.957642,255.895172 
	C535.613037,255.890808 540.074402,253.785645 539.797913,258.602325 
	C539.576599,262.456512 535.016113,262.153931 532.050171,261.981567 
	C517.615051,261.142548 508.623962,247.769455 513.141235,233.567902 
z"/>
<path fill="#000000" opacity="1.000000" stroke="none" 
	d="
M643.126953,537.851929 
	C651.356384,537.833435 659.106079,537.833435 667.078369,537.833435 
	C667.438599,541.746765 665.369080,543.231689 661.241699,543.372070 
	C651.136658,543.715881 641.041870,544.358887 629.211426,544.971069 
	C637.572266,553.160889 644.825317,560.378906 652.219055,567.449768 
	C655.001038,570.110291 655.657471,572.543152 652.759460,575.302124 
	C651.229431,575.296509 650.507874,574.332764 649.694946,573.513489 
	C641.257935,565.010437 632.827332,556.500916 624.377075,548.011047 
	C622.687012,546.313049 621.168945,544.704651 622.159790,541.934204 
	C623.249390,538.887146 625.650208,538.839355 628.216248,538.720642 
	C633.029358,538.497986 637.837158,538.160217 643.126953,537.851929 
z"/>
<path fill="#000000" opacity="1.000000" stroke="none" 
	d="
M155.833725,374.647400 
	C164.480774,374.122314 172.663315,373.609314 181.649261,373.045929 
	C178.092911,367.521118 173.766769,364.349060 170.120346,360.564026 
	C166.767807,357.084045 163.227036,353.785278 159.879990,350.300232 
	C157.070129,347.374573 157.122986,347.045258 159.366302,342.987061 
	C161.016205,342.550232 161.751190,343.897278 162.645645,344.777008 
	C171.200363,353.190765 179.714737,361.645477 188.256882,370.072021 
	C189.967285,371.759277 191.470886,373.299988 190.224060,376.113861 
	C189.064682,378.730377 187.167328,379.203430 184.646423,379.322693 
	C173.670395,379.841980 162.701340,380.507507 151.728165,381.089539 
	C149.602432,381.202301 147.432114,381.552887 145.264771,380.632904 
	C145.070297,376.499115 146.909164,374.627625 150.870178,374.724762 
	C152.368423,374.761505 153.869461,374.684570 155.833725,374.647400 
z"/>
<path fill="#000000" opacity="1.000000" stroke="none" 
	d="
M237.068481,655.042114 
	C240.551666,650.997192 243.937592,647.319519 247.005142,643.393188 
	C250.342148,639.122009 249.459641,635.195251 244.653702,632.729431 
	C242.589661,631.670410 240.313431,630.915405 241.934677,628.134766 
	C243.469025,625.503113 245.766541,626.943176 247.638916,627.840881 
	C256.218628,631.954712 258.122711,640.225403 252.064743,647.568909 
	C247.313858,653.327820 242.306931,658.875549 237.480606,664.440063 
	C237.752502,665.225647 237.845612,665.719116 238.079849,666.132507 
	C239.100479,667.934143 242.546387,668.797485 240.435577,671.800659 
	C238.160416,675.037720 236.474686,672.138733 234.702423,671.044067 
	C232.957382,669.966370 231.948822,671.090210 230.811066,672.092712 
	C229.079758,673.618408 227.706146,676.604919 224.785217,673.702087 
	C221.920715,670.855347 225.076874,669.372803 226.210739,667.432068 
	C226.617203,666.736267 227.018921,666.037659 227.426437,665.334045 
	C225.896439,662.649780 223.410797,661.166626 221.410416,659.222473 
	C219.982422,657.834656 219.611832,656.537048 221.075806,654.946045 
	C222.460800,653.440796 223.718842,654.033875 224.994507,655.035767 
	C227.189285,656.759644 229.374771,658.495300 231.468277,660.150208 
	C234.089874,659.077820 235.162048,656.863770 237.068481,655.042114 
z"/>
<path fill="#000000" opacity="1.000000" stroke="none" 
	d="
M617.760010,629.264893 
	C608.317444,621.835327 599.134338,614.651001 590.006836,607.396851 
	C588.295166,606.036499 585.679077,604.855957 588.007507,601.875427 
	C590.299011,598.942139 592.048279,601.024475 593.834717,602.419739 
	C606.568115,612.365112 619.278015,622.340759 632.009277,632.289001 
	C633.817566,633.701965 635.532288,634.926758 633.332703,637.478271 
	C631.252808,639.890991 629.610657,638.695923 627.817627,637.260193 
	C624.567139,634.657349 621.299316,632.076111 617.760010,629.264893 
z"/>
<path fill="#000000" opacity="1.000000" stroke="none" 
	d="
M363.990601,696.823975 
	C362.126892,705.333801 360.415924,713.450623 358.589508,721.541382 
	C358.089752,723.755188 358.616577,727.017151 354.568176,726.410095 
	C350.570892,725.810669 352.194336,722.865479 352.236084,720.075134 
	C347.604980,723.519531 342.840607,724.556580 337.402405,722.684998 
	C337.096527,719.136169 337.440735,717.130066 342.024963,717.437195 
	C348.500580,717.871094 352.715698,714.630554 354.572235,708.215515 
	C356.321533,702.170959 357.413055,695.937683 358.850983,689.800720 
	C359.360352,687.626770 359.913666,685.570679 363.100830,686.386108 
	C366.009369,687.130249 365.527069,689.096191 365.213165,691.063110 
	C364.925964,692.862488 364.477325,694.636169 363.990601,696.823975 
z"/>
<path fill="#000000" opacity="1.000000" stroke="none" 
	d="
M348.073181,233.627197 
	C344.551178,236.781204 342.557220,236.350296 341.493988,231.727844 
	C339.218658,221.835831 336.524750,212.040359 334.224487,202.153625 
	C333.735931,200.053833 331.757019,197.218460 335.434174,195.764984 
	C338.895721,194.396744 339.455444,197.366501 340.492554,200.128479 
	C342.958008,195.942642 346.005157,193.469238 349.844299,191.985764 
	C351.605927,191.305069 353.150543,191.297256 353.870605,193.441940 
	C354.454102,195.179932 354.266510,196.511734 352.466003,197.671051 
	C342.701996,203.957962 341.865509,206.165878 344.493164,217.233337 
	C345.757751,222.559753 346.959717,227.901016 348.073181,233.627197 
z"/>
<path fill="#000000" opacity="1.000000" stroke="none" 
	d="
M213.276016,303.703949 
	C216.819839,306.495544 220.076447,309.075562 223.350235,311.633575 
	C225.036987,312.951569 225.663071,314.312744 224.082764,316.231140 
	C222.560059,318.079681 221.193802,317.935089 219.439590,316.553009 
	C206.253906,306.164520 193.035950,295.816925 179.809937,285.479736 
	C177.976822,284.046967 177.181213,282.658661 178.924103,280.513245 
	C180.825317,278.172913 182.304779,279.443176 183.946457,280.731415 
	C193.622528,288.324371 203.311386,295.901062 213.276016,303.703949 
z"/>
<path fill="#000000" opacity="1.000000" stroke="none" 
	d="
M475.178650,705.013794 
	C476.160339,709.126709 477.145813,712.814087 477.937469,716.542603 
	C478.358307,718.524536 479.576874,720.915222 476.558868,722.045654 
	C473.417786,723.222107 472.523468,720.868286 471.421875,718.099548 
	C468.923645,721.370911 466.347961,724.100525 462.709442,725.493164 
	C460.873016,726.195984 459.138519,726.798889 458.150696,724.392639 
	C457.331238,722.396545 457.900879,721.104553 459.924866,719.971130 
	C468.567444,715.131165 469.854126,712.187378 467.771393,702.635986 
	C466.711029,697.773193 465.473816,692.949097 464.381744,688.092834 
	C463.896729,685.935913 462.537140,683.474487 466.114502,682.468750 
	C470.105469,681.346680 469.995575,684.512268 470.590698,686.750122 
	C472.168274,692.682251 473.607544,698.651123 475.178650,705.013794 
z"/>
<path fill="#000000" opacity="1.000000" stroke="none" 
	d="
M384.791504,224.870728 
	C384.560303,221.501297 385.784607,219.601501 388.897369,219.476746 
	C390.945099,219.394684 392.403320,220.536484 392.976929,222.492584 
	C393.698273,224.952438 392.596954,226.804199 390.410980,227.781754 
	C387.791809,228.953003 385.942474,227.816833 384.791504,224.870728 
z"/>
<path fill="#000000" opacity="1.000000" stroke="none" 
	d="
M421.607666,689.841736 
	C425.118866,689.170105 427.205322,690.366821 427.554962,693.628784 
	C427.816620,696.069946 426.523895,697.755371 424.034607,698.183899 
	C421.511475,698.618286 419.870453,697.298401 419.160553,695.015991 
	C418.495331,692.877197 419.440491,691.178467 421.607666,689.841736 
z"/>
</svg>