<svg version="1.1" id="Layer_1" xmlns="http://www.w3.org/2000/svg" xmlns:xlink="http://www.w3.org/1999/xlink" x="0px" y="0px"
	 width="100%" viewBox="0 0 800 1008" enable-background="new 0 0 800 1008" xml:space="preserve">
<path fill="#000000" opacity="1.000000" stroke="none" 
	d="
M424.660431,143.795013 
	C426.403656,131.191299 428.108490,119.028252 429.847717,106.870110 
	C430.169128,104.623192 430.740082,102.372353 433.775482,102.905159 
	C443.747314,104.655533 453.996918,104.829178 463.740875,107.804413 
	C476.314026,111.643532 480.533478,124.701744 472.236572,133.637741 
	C470.909912,135.066620 469.406586,136.331482 467.644379,137.993301 
	C474.268799,142.416412 476.654114,148.432800 474.917450,155.834106 
	C472.913361,164.374847 464.519897,169.309845 454.123108,168.028595 
	C444.892670,166.891083 435.700684,165.444473 426.480957,164.215179 
	C422.966339,163.746582 421.621185,162.262039 422.450714,158.509109 
	C423.487152,153.820099 423.933075,149.000565 424.660431,143.795013 
M467.111908,146.751877 
	C465.709503,144.091782 463.407257,142.462601 460.662048,141.550339 
	C452.878387,138.963806 444.689636,138.571030 436.661255,137.316071 
	C433.950714,136.892349 432.717346,138.329086 432.380676,140.922592 
	C431.803589,145.367722 431.081970,149.793900 430.473022,154.235168 
	C430.181641,156.360184 430.292297,158.272919 433.105347,158.652817 
	C440.346008,159.630615 447.550140,161.127151 454.820709,161.575027 
	C464.812317,162.190491 468.718536,157.480728 467.111908,146.751877 
M436.209076,115.715401 
	C435.645020,119.328941 435.132996,122.951630 434.499756,126.552994 
	C434.032776,129.208878 434.842621,130.547546 437.712738,130.893936 
	C443.819031,131.630936 449.871918,132.830658 455.984528,133.489883 
	C462.382568,134.179871 467.545502,130.644073 468.555634,125.335487 
	C469.659454,119.534798 466.765442,115.184097 459.836914,113.500771 
	C453.877350,112.052864 447.704224,111.507812 441.682098,110.284904 
	C437.619080,109.459839 436.076447,111.014809 436.209076,115.715401 
z"/>
<path fill="#000000" opacity="1.000000" stroke="none" 
	d="
M113.583527,454.482361 
	C102.458969,454.381561 91.802452,454.193665 81.148132,454.279419 
	C77.190384,454.311249 75.342186,453.108673 75.599434,448.847015 
	C76.139893,439.893402 74.893326,430.874786 76.562256,421.950500 
	C79.536476,406.046478 92.418579,395.334442 107.372269,396.368591 
	C124.907967,397.581268 136.519012,408.902832 137.218399,425.904846 
	C137.553406,434.048615 137.156189,442.220062 137.261505,450.376770 
	C137.305756,453.804321 135.938751,455.218445 132.516052,455.063751 
	C126.365646,454.785828 120.207405,454.681091 113.583527,454.482361 
M94.382790,406.742279 
	C88.189644,410.268341 84.955185,415.827637 83.272247,422.563110 
	C81.631447,429.129974 82.660912,435.795532 82.244926,442.402313 
	C82.038521,445.680450 83.471519,446.703674 86.637260,446.755219 
	C99.921967,446.971405 113.225800,446.420044 126.488403,447.599213 
	C129.470520,447.864349 130.747223,446.609161 130.690979,443.597809 
	C130.607208,439.113708 130.760666,434.625763 130.753098,430.139557 
	C130.718033,409.380432 114.330406,398.485657 94.382790,406.742279 
z"/>
<path fill="#000000" opacity="1.000000" stroke="none" 
	d="
M686.030457,444.017517 
	C678.575317,437.423584 675.786194,429.020477 674.982544,419.852722 
	C674.373840,412.907867 674.328003,405.915405 673.845093,398.957062 
	C673.605347,395.501678 675.109924,394.101654 678.384216,393.963715 
	C695.815613,393.229279 713.247253,392.494141 730.674011,391.660461 
	C734.032104,391.499786 735.185425,392.699280 735.546387,396.134674 
	C736.366211,403.938263 736.309753,411.739136 736.330627,419.547119 
	C736.364136,432.048492 731.570984,442.046509 720.019043,447.582245 
	C708.316101,453.190308 696.831360,452.544769 686.030457,444.017517 
M681.720764,420.704285 
	C681.878052,421.522491 682.054138,422.337555 682.189880,423.159302 
	C684.441406,436.789764 694.360046,444.540710 708.396851,443.633514 
	C720.245117,442.867706 729.472351,432.774353 729.764709,420.062714 
	C729.887268,414.735107 729.540344,409.396454 729.671509,404.069336 
	C729.761597,400.407227 728.404785,399.041016 724.673828,399.261658 
	C711.374939,400.048218 698.065552,400.667816 684.755249,401.238678 
	C681.885498,401.361786 681.010315,402.715057 681.123840,405.350006 
	C681.331787,410.175201 681.414001,415.005798 681.720764,420.704285 
z"/>
<path fill="#000000" opacity="1.000000" stroke="none" 
	d="
M671.403381,312.125000 
	C681.235229,307.883453 690.195740,308.758362 697.561523,316.108459 
	C705.139343,323.670105 706.148193,332.938812 702.106812,343.461334 
	C709.004211,341.004456 715.491455,338.718048 721.958984,336.377045 
	C724.316589,335.523682 726.216492,334.882172 727.474548,338.201904 
	C728.886597,341.927887 726.478027,342.475830 724.084900,343.317169 
	C706.686096,349.434296 689.280457,355.531799 671.889771,361.671936 
	C669.457581,362.530609 667.174683,363.682312 665.867188,360.071655 
	C664.631348,356.658875 667.100708,356.156830 669.251953,355.269836 
	C669.692566,355.088196 670.065613,354.742676 670.500000,354.452454 
	C650.521790,342.514893 655.252380,318.343750 671.403381,312.125000 
M689.484192,318.788422 
	C679.414795,314.896332 669.011780,318.533936 665.372864,327.219391 
	C662.022827,335.215088 665.510925,344.650879 673.227295,348.467072 
	C680.873108,352.248413 692.049683,348.724579 696.292114,341.194977 
	C700.557190,333.625427 697.942200,324.236938 689.484192,318.788422 
z"/>
<path fill="#000000" opacity="1.000000" stroke="none" 
	d="
M110.426582,533.640625 
	C102.147560,525.079956 100.687202,515.496521 105.340973,504.139648 
	C98.476448,506.034607 92.445107,507.681671 86.425262,509.369781 
	C83.847527,510.092651 81.140152,511.416351 80.062668,507.382263 
	C79.043587,503.566895 82.087730,503.374847 84.361305,502.720306 
	C101.956566,497.654602 119.571556,492.657440 137.178482,487.632141 
	C139.445969,486.984955 141.627487,486.000916 142.784607,489.415955 
	C143.956512,492.874725 141.590790,493.352051 139.377380,494.162903 
	C138.941299,494.322632 138.554367,494.616608 137.464859,495.233887 
	C145.904739,499.702942 149.514923,506.923431 149.906433,515.678650 
	C150.142227,520.951111 148.321960,525.849060 144.842850,529.969055 
	C136.293015,540.093750 121.566536,541.774414 110.426582,533.640625 
M114.603050,503.047516 
	C108.074371,509.691345 106.996246,517.627258 111.672752,524.616760 
	C116.077499,531.200073 123.899818,533.384460 131.967407,530.284058 
	C140.283127,527.088257 144.078629,520.549316 142.688660,511.813507 
	C140.763428,499.713531 126.830902,495.034973 114.603050,503.047516 
z"/>
<path fill="#000000" opacity="1.000000" stroke="none" 
	d="
M602.974365,666.063599 
	C604.457703,668.102539 605.723145,669.857422 606.995178,671.607483 
	C608.418274,673.565308 609.808105,675.353577 606.921875,677.440491 
	C604.079285,679.495728 602.742249,677.806702 601.316101,675.757446 
	C600.963318,675.250549 600.516235,674.809326 600.020935,674.230896 
	C595.305664,689.020752 584.489990,696.621338 572.157166,694.009521 
	C560.900269,691.625610 551.485779,678.755371 552.853210,667.619751 
	C554.400757,655.016602 565.011902,646.829773 580.143372,647.045044 
	C576.620789,642.227234 573.235718,637.747192 570.028076,633.143494 
	C568.556396,631.031311 565.538940,628.909973 569.490356,626.170044 
	C573.461609,623.416321 574.401733,627.150452 575.880066,629.141418 
	C584.909119,641.302002 593.813477,653.555176 602.974365,666.063599 
M564.876770,681.588806 
	C572.372009,688.930786 581.122742,689.442261 588.382812,682.962585 
	C594.946899,677.104187 595.434448,667.771118 589.583069,659.987366 
	C584.219910,652.853088 574.996521,651.237122 567.369995,656.095764 
	C559.042969,661.400452 557.909851,671.006775 564.876770,681.588806 
z"/>
<path fill="#000000" opacity="1.000000" stroke="none" 
	d="
M267.380859,202.406952 
	C261.490845,207.795166 254.765701,209.478973 246.231140,208.587631 
	C249.803650,214.331207 252.867706,219.365479 256.050171,224.323761 
	C257.437744,226.485626 258.408142,228.216888 255.457458,230.075134 
	C252.514511,231.928497 251.331451,230.277527 249.970352,228.142746 
	C240.399658,213.131912 230.770767,198.158096 221.229446,183.128662 
	C220.025558,181.232285 217.491531,179.343170 220.871994,176.873398 
	C224.364014,174.322098 225.457550,177.173141 227.072128,179.155624 
	C227.263168,179.390198 227.602112,179.504318 228.084274,179.807388 
	C231.722260,168.523361 239.083359,161.713043 251.271881,161.687225 
	C261.831787,161.664856 268.737152,167.623871 272.587982,176.960892 
	C276.417603,186.246536 275.024902,194.882385 267.380859,202.406952 
M265.366852,178.262711 
	C264.294342,176.787018 263.356323,175.186996 262.126495,173.856781 
	C256.247528,167.498062 248.033798,166.619370 240.906799,171.487823 
	C234.025284,176.188599 231.984482,184.402893 235.742386,192.274643 
	C239.635742,200.430161 247.513336,204.300278 255.328903,201.897110 
	C265.631317,198.729279 269.598267,189.933624 265.366852,178.262711 
z"/>
<path fill="#000000" opacity="1.000000" stroke="none" 
	d="
M592.741943,237.326202 
	C588.709595,235.192139 587.611816,232.083878 587.770508,228.009521 
	C588.010376,221.854309 587.711243,215.679886 587.838989,209.517746 
	C587.906494,206.263611 586.563232,205.418350 583.398987,205.145538 
	C576.906128,204.585770 572.098816,206.595291 568.854187,212.352997 
	C567.466370,214.815704 565.585266,216.149124 562.836121,213.778000 
	C561.167236,212.338593 560.708008,211.060364 562.235291,209.160645 
	C574.445984,193.971817 586.589478,178.728958 598.780334,163.524139 
	C602.026001,159.476105 603.713318,162.960770 606.308960,165.342224 
	C597.804810,176.113266 589.396912,186.762436 580.982849,197.419388 
	C587.370789,197.419388 593.551819,197.510086 599.728699,197.387680 
	C603.884888,197.305313 608.041504,196.997604 612.186157,196.650192 
	C615.891052,196.339645 618.571594,197.842316 620.970398,201.301147 
	C617.071289,202.940765 613.115417,202.728989 609.324158,203.231674 
	C606.690247,203.580917 604.017822,203.982651 601.379883,203.886612 
	C596.338135,203.703064 594.886353,205.930283 595.141479,210.815842 
	C595.531982,218.292114 595.258606,225.807159 595.126221,233.303284 
	C595.098450,234.876038 595.973633,237.193008 592.741943,237.326202 
z"/>
<path fill="#000000" opacity="1.000000" stroke="none" 
	d="
M550.132446,712.041687 
	C538.235291,724.326172 520.855591,722.760010 512.951599,709.110779 
	C511.059021,705.842468 511.082397,703.936157 514.979797,702.225708 
	C523.365234,698.545593 531.568115,694.446716 539.812073,690.449707 
	C541.260742,689.747314 543.027771,689.434387 543.899475,687.822998 
	C540.892883,681.540894 534.038574,678.838074 526.675476,680.915710 
	C521.471313,682.384216 517.284424,685.198364 514.620178,689.962280 
	C513.466919,692.024353 512.462097,693.798523 509.680298,692.274658 
	C506.825623,690.710876 508.046967,688.671936 508.986847,686.733154 
	C514.583130,675.189087 531.999207,670.047485 543.147217,676.617065 
	C555.344360,683.804749 558.609192,699.721802 550.132446,712.041687 
M543.825378,709.324097 
	C547.984131,704.829224 549.270508,699.772034 547.026855,693.216431 
	C537.870972,697.966309 528.645142,701.412903 520.311340,706.434814 
	C523.417236,714.915100 536.904602,716.240845 543.825378,709.324097 
z"/>
<path fill="#000000" opacity="1.000000" stroke="none" 
	d="
M126.211220,383.337036 
	C136.915466,379.192230 141.255905,369.314514 137.412521,358.328766 
	C136.727829,356.371643 135.614807,354.661377 138.391983,353.386536 
	C141.253174,352.073090 142.323257,353.931000 143.391464,355.912018 
	C148.130661,364.701141 144.321930,380.094025 135.906464,386.214569 
	C126.133804,393.322174 111.937462,391.927002 103.524193,383.032135 
	C95.810127,374.876556 95.562103,361.757996 103.121315,352.899078 
	C108.817253,346.223785 116.138748,344.132355 124.703110,345.626892 
	C127.808380,346.168793 128.425552,347.634674 127.752151,350.511078 
	C125.256020,361.173035 122.913567,371.870941 120.539665,382.438324 
	C122.227737,384.366089 124.097572,383.538330 126.211220,383.337036 
M112.872604,381.237823 
	C113.805641,381.421844 114.589119,381.130005 114.848412,380.211761 
	C117.397263,371.185699 119.519241,362.067963 121.118217,352.818146 
	C113.491463,351.575531 107.782051,354.825043 105.299408,361.425079 
	C102.293343,369.416595 104.839844,376.599976 112.872604,381.237823 
z"/>
<path fill="#000000" opacity="1.000000" stroke="none" 
	d="
M652.529724,590.939758 
	C650.738403,588.308411 652.686218,586.602173 653.629333,584.821228 
	C658.454102,575.710327 663.408630,566.668152 668.312134,557.612427 
	C662.551025,554.234314 657.011841,554.896545 651.847961,559.661255 
	C647.187317,563.961548 644.850708,569.328125 645.338928,575.742615 
	C645.518738,578.105225 646.146423,580.639282 642.642578,580.946106 
	C639.100403,581.256348 639.154358,578.197083 638.897400,576.152649 
	C637.358643,563.909790 648.258606,545.798340 666.794800,548.824524 
	C677.544373,550.579468 686.616638,560.202393 687.258362,570.463989 
	C687.890808,580.577820 680.811584,590.859192 671.055908,593.672424 
	C664.664246,595.515564 658.528992,594.621094 652.529724,590.939758 
M666.846252,572.282837 
	C664.442505,577.080078 661.205139,581.505981 659.727478,586.811462 
	C669.193054,589.454224 676.348511,586.004517 679.537537,577.699097 
	C682.233887,570.677063 679.974121,563.840515 673.752075,560.642578 
	C670.769104,563.802124 669.373535,567.960388 666.846252,572.282837 
z"/>
<path fill="#000000" opacity="1.000000" stroke="none" 
	d="
M302.974304,162.085129 
	C296.638123,164.671890 290.663086,167.122665 284.726166,169.557816 
	C286.600922,175.433914 293.226379,179.486176 299.282715,178.508987 
	C305.385376,177.524323 310.837463,175.220215 314.128143,169.533386 
	C315.250732,167.593399 316.299774,166.307770 318.803436,167.735641 
	C321.623260,169.343811 320.617798,171.174164 319.526855,173.166534 
	C314.710785,181.962067 301.220337,187.263077 291.317322,184.242737 
	C280.819580,181.040985 273.010010,169.855560 274.047150,159.507111 
	C275.228607,147.718246 283.807465,139.048370 295.339661,137.988663 
	C304.002930,137.192596 314.410217,143.914536 317.567963,152.095886 
	C318.606232,154.785934 317.827301,156.109421 315.351410,157.068878 
	C311.320953,158.630798 307.338257,160.315964 302.974304,162.085129 
M290.563995,145.885254 
	C282.238159,150.339035 279.426239,156.446320 282.429718,164.269455 
	C291.520782,160.522324 300.595947,156.781754 309.729950,153.016922 
	C305.866577,145.463440 300.343475,143.433853 290.563995,145.885254 
z"/>
<path fill="#000000" opacity="1.000000" stroke="none" 
	d="
M620.849365,264.571716 
	C608.921570,259.988586 602.254211,250.438705 602.648010,238.932236 
	C602.977722,229.299545 610.345398,220.405045 620.539062,217.333649 
	C630.460205,214.344345 641.498962,219.242447 646.646484,228.917892 
	C651.395691,237.844696 649.018921,249.724319 641.435181,256.203552 
	C639.088928,258.208069 637.773987,257.407684 636.123596,255.493851 
	C630.260559,248.694977 624.341309,241.943832 618.377441,235.233139 
	C616.973633,233.653534 615.844788,231.709854 613.320129,230.757355 
	C609.114685,234.863678 608.343689,239.908997 609.904541,245.267685 
	C611.791870,251.747345 616.237732,256.113068 622.602478,258.324341 
	C624.862061,259.109406 627.987793,258.683319 627.187439,262.559631 
	C626.392639,266.409149 623.601257,265.031158 620.849365,264.571716 
M642.354431,235.381729 
	C637.671814,223.764420 627.817261,219.884720 618.337646,226.591965 
	C624.882935,234.033401 631.375671,241.415070 638.011902,248.959839 
	C642.285522,245.060242 643.005127,240.808548 642.354431,235.381729 
z"/>
<path fill="#000000" opacity="1.000000" stroke="none" 
	d="
M188.733582,601.364258 
	C185.882523,597.203125 182.326447,594.541138 177.796326,593.413513 
	C175.634613,592.875427 174.498444,592.025146 175.063797,589.661621 
	C175.667175,587.139160 177.169388,586.765747 179.555176,587.239014 
	C190.797409,589.468933 199.427979,601.771362 198.389877,614.296692 
	C197.491913,625.131104 186.981476,634.954163 175.888474,635.326599 
	C163.827362,635.731506 153.467697,627.172241 151.985291,615.111511 
	C150.966385,606.821899 154.676102,600.291992 160.791763,594.940857 
	C163.086288,592.933167 164.473434,593.946350 166.024918,596.017029 
	C170.515137,602.009949 175.156662,607.889709 179.753479,613.802429 
	C181.888794,616.549011 184.058121,619.269165 186.186539,621.968933 
	C192.614548,618.069458 193.561325,610.370361 188.733582,601.364258 
M160.495728,620.824036 
	C166.827637,629.394714 175.818298,631.486938 181.251389,625.653992 
	C176.946976,618.117493 165.952332,604.523438 162.534927,602.648193 
	C157.996429,607.978638 157.090851,613.770142 160.495728,620.824036 
z"/>
<path fill="#000000" opacity="1.000000" stroke="none" 
	d="
M159.943207,294.723175 
	C170.323730,293.113220 177.112503,284.796570 176.428146,274.643036 
	C176.265762,272.233795 176.468155,270.889313 179.160187,270.459259 
	C182.198532,269.973938 182.426056,272.136810 182.866028,274.015778 
	C185.018814,283.209473 176.430038,296.835693 166.289642,300.424225 
	C156.429840,303.913452 144.364258,299.570465 138.276611,290.340942 
	C132.429230,281.475708 133.494690,270.347229 140.959381,262.320404 
	C147.784363,254.981445 158.981689,253.401031 168.022263,258.282043 
	C171.050995,259.917267 171.651947,261.474457 169.677505,264.511536 
	C164.596375,272.327271 159.782822,280.317780 154.917496,288.272217 
	C154.081787,289.638580 152.732620,290.855652 153.089813,292.861908 
	C154.911530,294.484863 157.230011,294.600800 159.943207,294.723175 
M156.410614,262.131165 
	C148.594986,262.682556 143.645584,266.440399 141.632355,273.351593 
	C139.765274,279.761078 141.610596,285.291748 147.427963,289.496094 
	C152.705429,280.972992 157.955521,272.494080 163.153625,264.099121 
	C160.895615,262.335388 159.046738,262.289429 156.410614,262.131165 
z"/>
<path fill="#000000" opacity="1.000000" stroke="none" 
	d="
M690.667114,490.788757 
	C691.881592,483.150940 693.062256,475.944611 694.247559,468.739105 
	C694.934204,464.564667 693.934998,463.711609 689.689270,464.858826 
	C680.774963,467.267487 675.280701,477.379120 677.912476,486.646088 
	C678.363464,488.234253 678.983154,489.804749 679.749023,491.265991 
	C680.819580,493.308655 680.404846,494.682739 678.396240,495.779510 
	C676.504333,496.812531 675.285522,496.170532 674.252258,494.507385 
	C669.634949,487.075439 669.783997,479.318695 673.035034,471.556915 
	C676.197205,464.007477 681.738647,458.892395 690.055359,457.799164 
	C703.700989,456.005432 714.601624,462.683807 717.729614,474.353668 
	C721.827515,489.641724 709.099121,504.445526 693.369507,502.745453 
	C690.105652,502.392700 688.431274,501.208649 689.497559,497.587097 
	C690.102783,495.531494 690.270447,493.347046 690.667114,490.788757 
M710.786804,474.008026 
	C708.901794,469.632538 705.745850,466.845703 700.493591,465.684082 
	C698.934326,475.764954 696.723633,485.370697 695.986511,495.215546 
	C707.053711,496.609161 713.838257,487.079529 710.786804,474.008026 
z"/>
<path fill="#000000" opacity="1.000000" stroke="none" 
	d="
M521.816406,143.651367 
	C524.358154,149.077332 523.352600,154.078018 521.636414,159.041824 
	C519.192261,166.111420 516.733093,173.176178 514.214661,180.219513 
	C513.464661,182.317017 513.174011,185.013748 509.694794,184.209732 
	C506.265076,183.417175 506.070801,181.287521 507.624084,177.993210 
	C499.331635,180.506866 492.042755,179.738510 485.452820,174.887177 
	C479.452881,170.470108 477.646210,164.426163 480.466125,158.308212 
	C483.141174,152.504593 488.860260,149.705093 495.907349,151.447830 
	C501.995422,152.953430 507.914185,155.143692 513.850220,157.013153 
	C517.627869,150.651474 516.259277,144.946777 510.245575,141.686050 
	C505.354218,139.033890 500.086609,138.675842 494.726288,139.689621 
	C492.682373,140.076157 491.173462,140.220520 490.609619,137.651215 
	C490.072815,135.205048 490.891510,134.047821 493.276794,133.284805 
	C502.448853,130.350891 515.989685,135.053345 521.816406,143.651367 
M487.639435,160.196960 
	C486.219727,162.455490 485.815826,164.816849 486.983124,167.304962 
	C489.001434,171.607132 496.753784,174.705414 502.739105,173.620499 
	C508.349670,172.603531 511.340973,169.067001 511.793732,162.516403 
	C506.888641,160.862717 501.936493,158.936676 496.834595,157.569763 
	C493.798065,156.756226 490.492493,156.682861 487.639435,160.196960 
z"/>
<path fill="#000000" opacity="1.000000" stroke="none" 
	d="
M361.559906,760.530273 
	C356.321594,759.904724 351.518463,759.420044 346.743622,758.737427 
	C344.839783,758.465210 342.529053,758.289978 342.985565,755.258057 
	C343.410187,752.438171 345.020996,751.968689 347.636353,752.325684 
	C356.040497,753.472839 364.494476,754.261414 372.890106,755.461670 
	C376.835419,756.025757 378.799255,755.223938 378.932526,750.764893 
	C379.060944,746.468445 379.960724,742.190308 380.597961,737.915466 
	C381.044922,734.917114 380.182587,733.228088 376.844635,732.888000 
	C369.563263,732.146057 362.306030,731.164246 355.042847,730.249084 
	C352.778931,729.963806 350.088959,730.176575 350.308563,726.596741 
	C350.528351,723.013245 353.049408,723.439941 355.386261,723.696228 
	C362.332153,724.457703 369.359589,724.845459 376.183746,726.226196 
	C381.272247,727.255798 382.292603,725.048462 382.677917,720.919861 
	C383.171844,715.627258 384.063629,710.371643 384.549347,705.078552 
	C384.822388,702.103088 386.419281,701.533386 388.939972,701.819580 
	C391.514771,702.111877 392.193237,703.496887 391.883057,705.960571 
	C389.660858,723.609802 387.426697,741.258911 385.436798,758.935059 
	C385.035583,762.499146 383.642303,763.529297 380.308685,763.034119 
	C374.221344,762.129761 368.108582,761.396362 361.559906,760.530273 
z"/>
<path fill="#000000" opacity="1.000000" stroke="none" 
	d="
M625.237549,609.143982 
	C637.315796,613.243896 644.710205,622.919250 643.959656,633.232300 
	C643.173584,644.033142 635.056274,653.641296 624.433044,655.815125 
	C614.781860,657.790039 607.039246,653.965759 601.095581,646.614807 
	C595.272644,639.413086 594.012207,631.196350 598.104065,622.744751 
	C602.151367,614.385437 608.799866,609.263062 618.361389,608.676025 
	C620.502319,608.544556 622.672729,608.892090 625.237549,609.143982 
M607.564636,642.896240 
	C611.453796,647.154114 616.208252,649.943359 622.037659,649.399475 
	C629.620605,648.692078 635.895203,642.263672 636.687561,635.190430 
	C637.576477,627.256653 632.992188,619.898743 625.160156,616.688904 
	C618.177551,613.827148 611.120667,615.726440 606.433960,621.729004 
	C601.657410,627.846558 601.896667,635.433594 607.564636,642.896240 
z"/>
<path fill="#000000" opacity="1.000000" stroke="none" 
	d="
M309.611847,708.213379 
	C304.780457,718.522400 296.485321,724.291931 287.478516,723.857117 
	C277.229889,723.362366 267.941223,716.708008 264.857269,707.651306 
	C261.763184,698.564758 265.545502,686.401367 273.230408,680.724487 
	C281.743622,674.435852 292.860870,674.593140 302.067810,681.132507 
	C310.336151,687.005249 313.231171,697.041077 309.611847,708.213379 
M287.475159,716.900574 
	C294.038025,716.972900 298.395569,713.329163 301.559082,708.118774 
	C305.682617,701.327271 304.564423,692.071960 299.358612,687.502136 
	C292.821869,681.764160 284.691864,681.076721 278.380005,685.728516 
	C272.656555,689.946594 269.611420,698.854492 271.504517,705.841431 
	C273.076416,711.642761 279.107330,716.040405 287.475159,716.900574 
z"/>
<path fill="#000000" opacity="1.000000" stroke="none" 
	d="
M192.750732,200.548859 
	C205.474777,193.592499 218.603928,197.002853 225.934814,208.884918 
	C232.381134,219.333252 229.323120,232.631393 218.742767,240.160187 
	C208.991669,247.098923 196.299179,245.686554 187.951340,236.733902 
	C179.833939,228.028442 179.215256,215.270294 186.636292,206.194275 
	C188.300568,204.158844 190.492447,202.554825 192.750732,200.548859 
M202.456619,237.226761 
	C211.456451,238.553726 218.975571,234.099030 221.587799,225.892532 
	C223.959030,218.443161 219.703568,209.389709 212.030090,205.558609 
	C204.362335,201.730362 196.246750,203.754532 191.357651,210.714691 
	C184.716904,220.168503 189.332138,231.872620 202.456619,237.226761 
z"/>
<path fill="#000000" opacity="1.000000" stroke="none" 
	d="
M667.895264,302.964355 
	C662.423889,306.196075 657.225891,309.177338 652.115417,312.301758 
	C649.891174,313.661621 648.363892,313.850952 646.890198,311.192413 
	C645.483765,308.655151 646.171204,307.338776 648.467407,306.004730 
	C654.798218,302.326538 661.126343,298.630951 667.298889,294.696533 
	C675.409363,289.526825 677.175659,283.872528 673.248779,276.743561 
	C668.925232,268.894501 661.537415,266.195251 653.411194,270.156189 
	C647.296692,273.136627 641.597717,276.960815 635.643127,280.282715 
	C633.411743,281.527588 631.050232,284.425995 628.660583,280.227386 
	C626.260376,276.010315 630.101868,275.412292 632.208557,274.126862 
	C642.009705,268.146667 651.887634,262.290070 661.813293,256.518677 
	C663.717102,255.411713 665.657166,252.691406 668.242981,255.761475 
	C671.132568,259.192200 668.065063,260.690155 665.677551,262.889801 
	C670.376587,265.086365 674.771057,267.266937 677.725586,271.454468 
	C685.302429,282.193085 683.610779,292.373993 672.858582,299.860291 
	C671.358521,300.904724 669.758118,301.804993 667.895264,302.964355 
z"/>
<path fill="#000000" opacity="1.000000" stroke="none" 
	d="
M221.290039,688.716064 
	C214.185776,680.778931 213.212753,674.507568 218.487717,665.795715 
	C222.965393,658.400696 228.203674,651.469055 233.008621,644.267822 
	C234.474121,642.071411 235.908508,642.012512 237.957230,643.432617 
	C240.015137,644.859009 240.426620,646.307983 238.951096,648.410461 
	C234.741394,654.408936 230.550995,660.422546 226.456619,666.500000 
	C220.885605,674.769226 221.456512,680.475769 228.227753,685.621033 
	C235.862152,691.422241 243.202255,690.794250 249.214737,683.236633 
	C253.768875,677.512085 257.740234,671.321777 261.923309,665.305542 
	C263.261963,663.380249 264.365326,661.874695 267.075317,663.722656 
	C269.691345,665.506653 269.642120,667.007751 267.943939,669.401672 
	C260.716309,679.590515 253.641632,689.887695 246.475159,700.120117 
	C245.195084,701.947754 244.256332,704.404419 241.076157,702.366943 
	C237.825226,700.284363 239.138840,698.370789 240.738571,696.221375 
	C240.902634,696.000916 240.826447,695.601746 240.892273,695.011902 
	C233.382782,696.324646 227.186752,693.505676 221.290039,688.716064 
z"/>
<path fill="#000000" opacity="1.000000" stroke="none" 
	d="
M135.631973,547.540344 
	C141.709503,544.370178 147.490799,541.427673 153.187378,538.329468 
	C155.703812,536.960815 157.365524,537.058899 158.762070,539.899475 
	C160.112671,542.646667 158.878632,543.804199 156.644485,544.905090 
	C150.230835,548.065430 143.815582,551.227966 137.483063,554.546204 
	C129.156998,558.909119 126.753723,565.036133 130.261459,572.463989 
	C134.131927,580.659973 141.239197,583.674683 149.626038,580.078186 
	C156.029617,577.332153 162.128113,573.876709 168.373276,570.758728 
	C173.598969,568.149719 173.757584,568.233337 175.856705,574.270630 
	C174.460953,576.514648 171.900284,577.096497 169.743271,578.212219 
	C160.143692,583.177368 150.541046,588.141174 140.836746,592.895691 
	C138.811584,593.887878 136.588516,597.010376 134.008652,593.426392 
	C131.437042,589.853882 134.597519,588.620178 137.214294,586.843140 
	C131.482651,584.252502 127.259521,580.771057 124.497025,575.560730 
	C118.985298,565.165161 121.335670,556.095825 131.382278,549.892578 
	C132.654083,549.107361 133.993317,548.431335 135.631973,547.540344 
z"/>
<path fill="#000000" opacity="1.000000" stroke="none" 
	d="
M567.136169,174.963974 
	C563.789124,165.871872 557.033325,160.792328 549.279602,161.379181 
	C542.093323,161.923065 535.673157,168.395721 533.847229,176.937546 
	C531.884277,186.120941 539.670288,195.331223 549.759827,195.710342 
	C551.080933,195.759979 552.507385,195.843613 553.718384,195.426956 
	C556.804749,194.365021 558.274597,196.040771 558.788696,198.525940 
	C559.390442,201.434830 556.586426,201.539948 554.880371,201.968506 
	C543.380920,204.857025 529.691040,196.045029 526.996094,184.165863 
	C524.557190,173.415649 530.366150,161.604843 540.508789,156.691376 
	C549.623901,152.275696 562.755859,155.673523 569.310303,164.163162 
	C570.742126,166.017776 571.864807,168.048706 572.572754,170.298721 
	C574.067932,175.051041 572.706665,176.358368 567.136169,174.963974 
z"/>
<path fill="#000000" opacity="1.000000" stroke="none" 
	d="
M672.971436,522.307434 
	C668.546265,523.972107 672.224609,525.231628 673.024841,525.998657 
	C678.788330,531.522644 684.715759,536.875488 690.588928,542.285034 
	C692.546631,544.088257 694.406921,546.011230 696.472717,547.680176 
	C699.729919,550.311646 699.907471,553.032898 697.243835,556.069763 
	C695.534424,556.358032 694.721680,555.131470 693.789124,554.270020 
	C683.646606,544.900818 673.560547,535.470276 663.384705,526.137512 
	C661.244019,524.174133 660.012512,522.322388 661.117310,519.214111 
	C662.185730,516.208191 664.323669,515.894165 666.957703,515.681946 
	C680.373474,514.600830 693.780457,513.410400 707.190125,512.253418 
	C708.664612,512.126221 710.162170,511.699371 711.771973,512.822388 
	C712.063171,516.500610 710.992004,518.958374 706.593262,519.311523 
	C695.496887,520.202454 684.415344,521.276855 672.971436,522.307434 
z"/>
<path fill="#000000" opacity="1.000000" stroke="none" 
	d="
M142.983032,311.016296 
	C147.731781,315.953613 152.220917,320.647919 156.736130,325.317017 
	C158.335251,326.970673 158.476166,328.676788 157.523865,330.775330 
	C156.623444,332.759674 155.579437,334.155792 153.179276,334.206848 
	C138.364899,334.521942 123.551712,334.893005 108.737457,335.214630 
	C108.108589,335.228271 107.473106,334.937286 106.656319,334.744751 
	C106.358368,330.920776 107.490341,328.895142 111.694763,328.526703 
	C121.839081,327.637695 131.994736,327.886902 142.145752,327.661285 
	C144.105469,327.617706 146.138306,327.995361 148.705765,326.678558 
	C144.918518,322.551636 141.331635,318.547150 137.638535,314.643188 
	C133.060654,309.803894 128.332138,305.106262 123.789062,300.235168 
	C120.787430,297.016815 120.910942,296.157959 124.358414,291.964630 
	C131.051437,297.696014 136.630096,304.495483 142.983032,311.016296 
z"/>
<path fill="#000000" opacity="1.000000" stroke="none" 
	d="
M213.897949,634.180115 
	C214.821381,629.406555 212.168777,627.052307 208.736969,625.234802 
	C206.894608,624.258972 204.996826,623.397766 206.173019,620.767944 
	C207.528198,617.737976 209.749649,619.094482 211.674652,619.862183 
	C221.750900,623.880432 224.360291,634.549438 217.125626,642.594788 
	C212.115555,648.166260 206.895035,653.553223 201.648361,658.904846 
	C199.531845,661.063660 198.789261,662.883911 201.535950,665.054749 
	C203.055801,666.256042 204.210739,667.681030 202.397644,669.645630 
	C200.681732,671.504883 198.930786,671.610107 197.327423,669.689758 
	C194.669968,666.506836 192.643204,667.817444 190.489914,670.304443 
	C188.973206,672.056213 187.484100,673.943481 184.767624,671.476440 
	C181.903717,668.875427 183.581894,667.241394 185.425949,665.334106 
	C186.448486,664.276550 187.298874,663.052490 188.330383,661.775330 
	C186.551941,658.690369 183.706757,656.836182 181.488129,654.427795 
	C180.072723,652.891296 179.383453,651.520081 181.145691,649.726013 
	C182.930679,647.908813 184.322647,648.615112 185.814651,650.063843 
	C188.067047,652.250916 190.373123,654.382751 193.234497,657.083801 
	C200.417191,649.529419 207.809723,642.696533 213.897949,634.180115 
z"/>
<path fill="#000000" opacity="1.000000" stroke="none" 
	d="
M676.273010,621.630249 
	C678.457520,623.199829 680.672546,624.309326 678.464539,627.291626 
	C676.339172,630.162231 674.504517,629.217957 672.214172,627.568115 
	C657.253540,616.791199 642.244080,606.082031 627.230408,595.379028 
	C624.957947,593.759033 622.719788,592.436890 625.202271,589.110535 
	C627.690002,585.777283 629.567566,588.188721 631.418274,589.506592 
	C646.303650,600.106628 661.133057,610.785156 676.273010,621.630249 
z"/>
<path fill="#000000" opacity="1.000000" stroke="none" 
	d="
M164.196487,240.822357 
	C158.919662,236.466324 154.087784,232.100479 148.852722,228.288330 
	C144.733337,225.288559 145.177933,222.966339 148.926498,220.294662 
	C150.812073,220.107132 151.908844,221.521667 153.156357,222.533020 
	C167.371582,234.057297 181.582184,245.587509 195.739014,257.183289 
	C197.497528,258.623657 200.404205,259.796967 197.797470,263.071411 
	C195.283463,266.229401 193.380646,264.578522 191.184662,262.779297 
	C182.305466,255.504288 173.377548,248.288742 164.196487,240.822357 
z"/>
<path fill="#000000" opacity="1.000000" stroke="none" 
	d="
M502.426147,712.710938 
	C503.963745,717.697266 505.500153,722.267639 506.815948,726.900574 
	C507.404480,728.972717 508.797363,731.357483 505.290405,732.632751 
	C502.148407,733.775269 501.038666,732.212280 500.264008,729.664673 
	C500.139648,729.255859 499.730438,728.933655 499.298950,728.370544 
	C496.735962,732.307800 493.932007,735.759338 489.560211,737.490906 
	C487.690826,738.231323 485.808472,739.420227 484.715851,736.436829 
	C483.898865,734.206055 483.647186,732.688110 486.452911,731.296204 
	C495.104736,727.003967 497.235931,721.993774 494.695770,712.532104 
	C492.973358,706.116516 490.928101,699.786133 488.960175,693.438538 
	C488.193726,690.966309 487.972412,689.017395 491.140442,687.991882 
	C494.520569,686.897705 495.113983,689.014587 495.835968,691.377747 
	C497.971741,698.368042 500.164612,705.340820 502.426147,712.710938 
z"/>
<path fill="#000000" opacity="1.000000" stroke="none" 
	d="
M325.445343,736.872620 
	C325.585236,734.924316 325.845978,733.306946 326.188812,731.180298 
	C322.045593,734.280273 317.561523,734.812195 312.902161,734.290955 
	C310.926361,734.069946 308.634216,733.913818 309.034546,730.963013 
	C309.360840,728.557861 310.376862,727.372009 313.325439,727.539734 
	C323.208954,728.101929 327.460449,725.036987 330.491516,715.436951 
	C332.390869,709.421509 333.980164,703.306152 335.620483,697.211853 
	C336.288208,694.731079 337.057526,692.810608 340.312378,693.663574 
	C343.521210,694.504456 343.403473,696.400208 342.670319,698.995972 
	C339.329407,710.824585 336.145355,722.697449 332.827271,734.532654 
	C331.381042,739.691223 330.561920,739.936523 325.445343,736.872620 
z"/>
<path fill="#000000" opacity="1.000000" stroke="none" 
	d="
M346.622070,124.303116 
	C347.931702,127.427475 347.352478,129.120209 344.241180,130.357666 
	C336.765381,133.330963 334.454376,137.381439 335.153351,145.509048 
	C335.797241,152.996216 338.482086,160.058456 339.924744,167.384277 
	C340.410645,169.851883 340.702118,171.936951 337.474426,172.822769 
	C333.915192,173.799576 333.526611,171.213867 332.989624,169.032272 
	C330.130585,157.416290 327.351868,145.780182 324.620483,134.133423 
	C324.063293,131.757751 322.129944,128.915466 326.373657,127.680626 
	C330.531006,126.470924 330.375885,129.939590 331.622314,132.520981 
	C333.931061,129.852112 335.682495,126.713409 338.791077,125.233864 
	C341.133148,124.119164 343.450867,121.621590 346.622070,124.303116 
z"/>
<path fill="#000000" opacity="1.000000" stroke="none" 
	d="
M442.244934,699.160950 
	C445.981201,699.270081 447.930054,701.148926 447.964569,704.401428 
	C447.991547,706.943542 446.435913,708.771667 443.748749,709.147522 
	C441.098846,709.518188 439.164917,708.319397 438.303864,705.839111 
	C437.132355,702.464539 439.006256,700.540344 442.244934,699.160950 
z"/>
<path fill="#000000" opacity="1.000000" stroke="none" 
	d="
M391.028625,161.537735 
	C387.236298,165.795364 384.095947,165.908615 382.301025,162.184830 
	C381.372833,160.259247 381.416290,158.310242 382.858490,156.615555 
	C384.272949,154.953461 386.167419,154.249023 388.206818,155.048203 
	C390.937958,156.118454 391.638824,158.405640 391.028625,161.537735 
z"/>
</svg>